<svg width="95" height="39" viewBox="0 0 95 39" fill="none" xmlns="http://www.w3.org/2000/svg">
<path d="M4.55 5.05L0.65 4.35V0.849998H28L28.65 9.7H24.7L22.95 4.65L13.1 4.15V17.15L19.2 17L20.1 12.9H23.55V25.45H20.1L19.25 21.1L13.1 20.95V34.55L24.05 33.85L27.1 27.4L31.35 28.6L30.15 38H0.7V34.7L4.55 34.2V5.05ZM37.4113 5.05L33.5113 4.35V0.849998H60.8613L61.5113 9.7H57.5613L55.8113 4.65L45.9613 4.15V17.15L52.0613 17L52.9613 12.9H56.4113V25.45H52.9613L52.1113 21.1L45.9613 20.95V34.55L56.9113 33.85L59.9613 27.4L64.2113 28.6L63.0113 38H33.5613V34.7L37.4113 34.2V5.05ZM79.7727 38.55C77.9393 38.55 76.2393 38.4 74.6727 38.1C73.1393 37.8 71.5227 37.4 69.8227 36.9C68.7227 36.5667 67.9227 36.3833 67.4227 36.35L67.8727 27H72.5227L73.7727 33.4C74.1393 33.8333 74.806 34.2167 75.7727 34.55C76.7727 34.8833 77.956 35.05 79.3227 35.05C81.356 35.05 82.8727 34.6 83.8727 33.7C84.906 32.8 85.4227 31.5667 85.4227 30C85.4227 28.9 85.0893 27.95 84.4227 27.15C83.7893 26.3167 82.8893 25.5667 81.7227 24.9C80.5893 24.2 79.0227 23.4 77.0227 22.5C74.3893 21.3 72.156 19.7833 70.3227 17.95C68.5227 16.0833 67.6227 13.6333 67.6227 10.6C67.6227 8.73333 68.106 7.03333 69.0727 5.5C70.0393 3.96666 71.506 2.73333 73.4727 1.8C75.4393 0.866665 77.8893 0.399998 80.8227 0.399998C82.5893 0.399998 84.1227 0.516664 85.4227 0.749997C86.756 0.983331 88.1727 1.3 89.6727 1.7C90.4727 1.96666 91.0893 2.11666 91.5227 2.15L91.2227 11.05H86.6727L85.5227 4.9C85.2893 4.6 84.756 4.33333 83.9227 4.1C83.1227 3.83333 82.2227 3.7 81.2227 3.7C79.3893 3.7 78.006 4.13333 77.0727 5C76.1727 5.86667 75.7227 6.98333 75.7227 8.35C75.7227 9.55 76.106 10.6 76.8727 11.5C77.6393 12.4 78.556 13.1667 79.6227 13.8C80.7227 14.4 82.3893 15.25 84.6227 16.35C86.3893 17.2167 87.9227 18.1 89.2227 19C90.556 19.8667 91.6893 21 92.6227 22.4C93.556 23.8 94.0227 25.4333 94.0227 27.3C94.0227 29.1333 93.5727 30.9 92.6727 32.6C91.806 34.3 90.306 35.7167 88.1727 36.85C86.0393 37.9833 83.2393 38.55 79.7727 38.55Z" fill="#CF554E"/>
</svg>
