<svg width="25" height="24" viewBox="0 0 25 24" fill="none" xmlns="http://www.w3.org/2000/svg">
<g clip-path="url(#clip0_1_3411)">
<path d="M24.8785 12.073C24.8785 5.40405 19.5055 -0.00195312 12.8785 -0.00195312C6.24849 -0.000453125 0.875488 5.40405 0.875488 12.0745C0.875488 18.1 5.26449 23.095 11.0005 24.001V15.5635H7.95549V12.0745H11.0035V9.41205C11.0035 6.38655 12.796 4.71555 15.5365 4.71555C16.8505 4.71555 18.223 4.95105 18.223 4.95105V7.92105H16.7095C15.22 7.92105 14.755 8.85255 14.755 9.80805V12.073H18.082L17.551 15.562H14.7535V23.9995C20.4895 23.0935 24.8785 18.0985 24.8785 12.073Z" fill="#111111"/>
</g>
<defs>
<clipPath id="clip0_1_3411">
<rect width="24" height="24" fill="white" transform="translate(0.879395)"/>
</clipPath>
</defs>
</svg>
