<svg width="24" height="24" viewBox="0 0 24 24" fill="none" xmlns="http://www.w3.org/2000/svg">
<path d="M11.9364 7.9983C9.74405 7.9983 7.95491 9.79651 7.95491 12C7.95491 14.2035 9.74405 16.0017 11.9364 16.0017C14.1288 16.0017 15.9179 14.2035 15.9179 12C15.9179 9.79651 14.1288 7.9983 11.9364 7.9983ZM23.8779 12C23.8779 10.3429 23.8928 8.70077 23.8002 7.04665C23.7077 5.12536 23.2716 3.4202 21.8737 2.01525C20.4729 0.607302 18.7793 0.172008 16.8677 0.0789456C15.219 -0.0141173 13.5852 0.000892936 11.9394 0.000892936C10.2906 0.000892936 8.65683 -0.0141173 7.01107 0.0789456C5.09947 0.172008 3.40293 0.610305 2.00508 2.01525C0.604236 3.42321 0.17114 5.12536 0.0785469 7.04665C-0.014046 8.70377 0.000888426 10.3459 0.000888426 12C0.000888426 13.6541 -0.014046 15.2992 0.0785469 16.9533C0.17114 18.8746 0.607222 20.5798 2.00508 21.9847C3.40592 23.3927 5.09947 23.828 7.01107 23.9211C8.65982 24.0141 10.2936 23.9991 11.9394 23.9991C13.5881 23.9991 15.222 24.0141 16.8677 23.9211C18.7793 23.828 20.4759 23.3897 21.8737 21.9847C23.2746 20.5768 23.7077 18.8746 23.8002 16.9533C23.8958 15.2992 23.8779 13.6571 23.8779 12ZM11.9364 18.1572C8.54631 18.1572 5.81034 15.4073 5.81034 12C5.81034 8.5927 8.54631 5.84284 11.9364 5.84284C15.3265 5.84284 18.0625 8.5927 18.0625 12C18.0625 15.4073 15.3265 18.1572 11.9364 18.1572ZM18.3134 7.02864C17.5218 7.02864 16.8827 6.38621 16.8827 5.59067C16.8827 4.79513 17.5218 4.1527 18.3134 4.1527C19.1049 4.1527 19.7441 4.79513 19.7441 5.59067C19.7443 5.77957 19.7075 5.96667 19.6357 6.14124C19.5638 6.31581 19.4585 6.47442 19.3256 6.608C19.1927 6.74157 19.0348 6.84748 18.8612 6.91967C18.6875 6.99185 18.5013 7.02888 18.3134 7.02864Z" fill="#111111"/>
</svg>
