<svg width="25" height="24" viewBox="0 0 25 24" fill="none" xmlns="http://www.w3.org/2000/svg">
<path fill-rule="evenodd" clip-rule="evenodd" d="M0.879395 2.00509C0.879395 1.47331 1.09064 0.963308 1.46667 0.58728C1.8427 0.211253 2.3527 2.67307e-06 2.88449 2.67307e-06H22.8721C23.1357 -0.000427747 23.3967 0.0511258 23.6403 0.151712C23.8839 0.252298 24.1052 0.399941 24.2917 0.586188C24.4781 0.772435 24.626 0.993628 24.7268 1.2371C24.8277 1.48058 24.8795 1.74156 24.8794 2.00509V21.9927C24.8797 22.2563 24.828 22.5174 24.7273 22.761C24.6266 23.0046 24.4788 23.2259 24.2925 23.4123C24.1062 23.5988 23.8849 23.7466 23.6414 23.8475C23.3978 23.9483 23.1368 24.0001 22.8732 24H2.88449C2.62108 24 2.36026 23.9481 2.11692 23.8473C1.87358 23.7464 1.65249 23.5986 1.46629 23.4123C1.28008 23.226 1.13241 23.0049 1.03171 22.7615C0.931009 22.5181 0.879252 22.2572 0.879395 21.9938V2.00509ZM10.379 9.15055H13.6288V10.7825C14.0979 9.84437 15.2979 9 17.1012 9C20.5583 9 21.3776 10.8687 21.3776 14.2975V20.6487H17.879V15.0785C17.879 13.1258 17.4099 12.024 16.2187 12.024C14.5659 12.024 13.8787 13.212 13.8787 15.0785V20.6487H10.379V9.15055ZM4.37903 20.4993H7.87867V9H4.37903V20.4982V20.4993ZM8.37939 5.24946C8.38599 5.5491 8.33267 5.84704 8.22256 6.1258C8.11246 6.40456 7.94778 6.65851 7.73819 6.87276C7.52861 7.08702 7.27834 7.25725 7.00207 7.37346C6.72581 7.48968 6.42911 7.54955 6.12939 7.54955C5.82968 7.54955 5.53298 7.48968 5.25672 7.37346C4.98045 7.25725 4.73018 7.08702 4.5206 6.87276C4.31101 6.65851 4.14633 6.40456 4.03622 6.1258C3.92612 5.84704 3.8728 5.5491 3.87939 5.24946C3.89235 4.6613 4.13509 4.10159 4.55563 3.69021C4.97618 3.27882 5.54109 3.04846 6.12939 3.04846C6.7177 3.04846 7.28261 3.27882 7.70316 3.69021C8.1237 4.10159 8.36644 4.6613 8.37939 5.24946Z" fill="#111111"/>
</svg>
