<svg width="253" height="72" viewBox="0 0 253 72" fill="none" xmlns="http://www.w3.org/2000/svg">
<rect x="2.77784" y="2.94184" width="247.473" height="55.8735" rx="15.2322" fill="#D0514A"/>
<rect x="2.77784" y="2.94184" width="247.473" height="55.8735" rx="15.2322" stroke="#D0514A" stroke-width="5.40712"/>
<rect x="0.0742798" y="0.238281" width="209.998" height="50.8181" fill="url(#paint0_linear_44_2160)"/>
<path d="M101.397 37.0598C100.806 37.0598 100.274 37.0104 99.8026 36.9118C99.3313 36.8131 98.8052 36.6816 98.2243 36.5172C97.8407 36.4076 97.5831 36.3473 97.4516 36.3363L97.5995 33.2947H98.9313L99.293 35.4156C99.4354 35.5691 99.6875 35.7061 100.049 35.8267C100.422 35.9472 100.844 36.0075 101.315 36.0075C102.05 36.0075 102.598 35.8486 102.959 35.5307C103.332 35.2019 103.518 34.747 103.518 34.1661C103.518 33.7825 103.409 33.4537 103.19 33.1796C102.97 32.8947 102.669 32.6426 102.285 32.4234C101.902 32.1932 101.376 31.9301 100.707 31.6342C99.7972 31.2177 99.0409 30.7244 98.438 30.1545C97.8461 29.5736 97.5502 28.7899 97.5502 27.8034C97.5502 27.1896 97.7091 26.6361 98.027 26.1428C98.3449 25.6386 98.8162 25.244 99.4409 24.9591C100.077 24.6631 100.849 24.5152 101.759 24.5152C102.296 24.5152 102.768 24.5535 103.173 24.6302C103.59 24.707 104.039 24.8111 104.521 24.9426C104.806 25.0194 105.02 25.0687 105.162 25.0906L105.064 27.9678H103.749L103.403 25.9455C103.305 25.8469 103.107 25.7537 102.811 25.666C102.515 25.5674 102.187 25.5181 101.825 25.5181C101.167 25.5181 100.669 25.6715 100.329 25.9784C99.9999 26.2744 99.8355 26.6744 99.8355 27.1786C99.8355 27.5842 99.9561 27.9349 100.197 28.2309C100.449 28.5268 100.751 28.7789 101.101 28.9872C101.452 29.1844 102.006 29.4694 102.762 29.8421C103.376 30.138 103.902 30.4285 104.34 30.7135C104.779 30.9985 105.157 31.3711 105.475 31.8315C105.793 32.2809 105.952 32.8125 105.952 33.4263C105.952 34.0291 105.798 34.6045 105.491 35.1526C105.195 35.7006 104.702 36.1555 104.012 36.5172C103.332 36.8789 102.461 37.0598 101.397 37.0598ZM114.576 37.0433C114.214 37.0433 113.951 36.9666 113.786 36.8131C113.622 36.6597 113.54 36.4295 113.54 36.1226V35.6787C113.244 36.0404 112.827 36.3638 112.29 36.6487C111.753 36.9227 111.216 37.0598 110.679 37.0598C109.627 37.0598 108.876 36.7912 108.427 36.2541C107.977 35.7061 107.753 34.8073 107.753 33.5578V28.9214L106.931 28.6912V27.7541L109.726 27.5403H109.742L110.071 27.7705V33.5578C110.071 34.3579 110.169 34.9169 110.367 35.2348C110.564 35.5527 110.931 35.7116 111.468 35.7116C112.115 35.7116 112.718 35.4595 113.277 34.9553V28.9214L112.175 28.6748V27.7541L115.151 27.5403H115.184L115.579 27.7705V35.8596H116.499L116.483 36.7967C116.439 36.8077 116.236 36.8515 115.875 36.9282C115.513 37.005 115.08 37.0433 114.576 37.0433ZM116.921 23.7589L119.93 23.3972H119.963L120.423 23.7095V28.5597C120.719 28.2637 121.081 28.0171 121.508 27.8198C121.947 27.6116 122.418 27.5074 122.922 27.5074C123.975 27.5074 124.83 27.8801 125.487 28.6254C126.156 29.3598 126.49 30.4888 126.49 32.0123C126.49 32.955 126.293 33.8099 125.898 34.5771C125.504 35.3444 124.934 35.9527 124.188 36.4021C123.454 36.8405 122.599 37.0598 121.624 37.0598C120.758 37.0598 120.007 36.9885 119.371 36.846C118.735 36.6926 118.33 36.5556 118.154 36.435V24.8111L116.921 24.6138V23.7589ZM122.051 28.9543C121.722 28.9543 121.41 29.031 121.114 29.1844C120.829 29.3269 120.599 29.4913 120.423 29.6777V35.6787C120.489 35.7993 120.643 35.8979 120.884 35.9746C121.125 36.0514 121.399 36.0897 121.706 36.0897C122.407 36.0897 122.966 35.7664 123.383 35.1197C123.81 34.4621 124.024 33.492 124.024 32.2096C124.024 31.1026 123.843 30.286 123.481 29.7599C123.12 29.2228 122.643 28.9543 122.051 28.9543ZM127.825 35.8924L128.745 35.7445V29.2995L127.693 29.0036V27.8692L130.422 27.5239L130.62 27.6554L130.866 28.198V28.8885C131.228 28.5378 131.743 28.2309 132.412 27.9678C133.091 27.6938 133.678 27.5568 134.171 27.5568C134.763 27.5568 135.239 27.6554 135.601 27.8527C135.974 28.05 136.253 28.3569 136.44 28.7734C136.801 28.4446 137.278 28.1596 137.87 27.9185C138.462 27.6773 139.043 27.5568 139.613 27.5568C140.588 27.5568 141.279 27.8418 141.684 28.4117C142.09 28.9817 142.293 29.9133 142.293 31.2067V35.7445L143.361 35.8924V36.8789H139.103V35.8924L139.958 35.7445V31.2725C139.958 30.4175 139.854 29.8202 139.646 29.4804C139.448 29.1296 139.065 28.9543 138.495 28.9543C138.188 28.9543 137.87 29.0255 137.541 29.168C137.223 29.2995 136.938 29.4639 136.686 29.6612C136.763 30.0777 136.801 30.5984 136.801 31.2231V35.7445L137.821 35.8924V36.8789H133.53V35.8924L134.434 35.7445V31.2231C134.434 30.6532 134.396 30.2093 134.319 29.8914C134.253 29.5626 134.121 29.3269 133.924 29.1844C133.727 29.031 133.442 28.9543 133.069 28.9543C132.719 28.9543 132.368 29.0365 132.017 29.2009C131.677 29.3543 131.37 29.5407 131.096 29.7599V35.7445L132.066 35.8924V36.8789H127.825V35.8924ZM146.431 26.2415C146.036 26.2415 145.724 26.1264 145.494 25.8962C145.264 25.666 145.148 25.3701 145.148 25.0084C145.148 24.5919 145.28 24.2466 145.543 23.9726C145.806 23.6986 146.157 23.5616 146.595 23.5616C147.034 23.5616 147.368 23.6821 147.598 23.9233C147.828 24.1535 147.943 24.4439 147.943 24.7947C147.943 25.2331 147.812 25.5838 147.549 25.8469C147.286 26.11 146.919 26.2415 146.447 26.2415H146.431ZM145.56 29.2995L144.392 28.9872V27.8856L147.401 27.5239H147.434L147.894 27.8527V35.7609L148.996 35.8924V36.8789H144.409V35.8924L145.56 35.7445V29.2995ZM152.936 37.0269C152.246 37.0269 151.736 36.8679 151.407 36.5501C151.078 36.2322 150.914 35.728 150.914 35.0375V29.0036H149.845V28.1487C149.933 28.1158 150.092 28.061 150.322 27.9842C150.552 27.8966 150.728 27.8253 150.848 27.7705C151.035 27.628 151.194 27.3814 151.325 27.0307C151.424 26.8005 151.605 26.2305 151.868 25.3208H153.183L153.249 27.7376H155.764V29.0036H153.265V33.6236C153.265 34.2374 153.282 34.6703 153.314 34.9224C153.347 35.1745 153.419 35.3389 153.528 35.4156C153.638 35.4814 153.83 35.5143 154.104 35.5143C154.378 35.5143 154.663 35.4869 154.959 35.4321C155.255 35.3663 155.501 35.2896 155.698 35.2019L156.011 36.1226C155.704 36.3528 155.255 36.561 154.663 36.7474C154.071 36.9337 153.495 37.0269 152.936 37.0269Z" fill="#FAF9EC"/>
<rect x="2.31626" y="8.45877" width="248.396" height="60.5333" rx="15.6938" stroke="#CF554E" stroke-width="4.48395"/>
<defs>
<linearGradient id="paint0_linear_44_2160" x1="105.073" y1="0.238281" x2="105.073" y2="51.0564" gradientUnits="userSpaceOnUse">
<stop stop-color="white" stop-opacity="0.05"/>
<stop offset="1" stop-color="#2A2A2A" stop-opacity="0"/>
</linearGradient>
</defs>
</svg>
